<svg xmlns="http://www.w3.org/2000/svg" viewBox="0 0 147.9 43"><defs><style>.cls-1{fill:#eee;}</style></defs><title>googlestore</title><g id="Layer_2" data-name="Layer 2"><g id="Layer_1-2" data-name="Layer 1"><path class="cls-1" d="M143.2,43H4.7A4.69,4.69,0,0,1,0,38.3V4.7A4.69,4.69,0,0,1,4.7,0H143.2a4.69,4.69,0,0,1,4.7,4.7V38.3A4.69,4.69,0,0,1,143.2,43ZM4.6,1A3.69,3.69,0,0,0,.9,4.7V38.3A3.76,3.76,0,0,0,4.6,42H143.1a3.69,3.69,0,0,0,3.7-3.7V4.7A3.69,3.69,0,0,0,143.1,1Z"/><path class="cls-1" d="M96.5,31a5.58,5.58,0,0,1-2.3.6c-1.9,0-3.6-1.5-4.1-4l1.5-.1,4.7-1.9a3.18,3.18,0,0,0-1.4-2,3.7,3.7,0,0,0-2.1-.6,4.51,4.51,0,0,0-4.6,4.6,5,5,0,0,0,2.1,4.2,4.55,4.55,0,0,0,2.7.8,5.08,5.08,0,0,0,2-.4,5.73,5.73,0,0,0,.7-.4l.8-.8ZM90,26.5c0-2.2,1.5-2.8,2.3-2.8a2,2,0,0,1,2,1.7c0,.3-.2.4-.6.5L90,27.5Z"/><path class="cls-1" d="M86.7,30.9V19.6a1.54,1.54,0,0,1,.9-1.3H84.7l-1.5.7h1.6V31.3c0,.4-.1.5-.5,1.1h3.5l.7-.4c-.3,0-.7-.1-1-.1C86.8,31.8,86.7,31.6,86.7,30.9Z"/><path class="cls-1" d="M83.7,23.3H79.6A5.64,5.64,0,0,0,76,24.4a3.49,3.49,0,0,0-1.3,2.7A3.1,3.1,0,0,0,78,30.2h.6a1.55,1.55,0,0,0-.2.8,2.25,2.25,0,0,0,.6,1.4,9.91,9.91,0,0,0-3.8.9,2.89,2.89,0,0,0-1.6,2.4c0,1.5,1.4,2.9,4.3,2.9,3.5,0,5.3-1.9,5.3-3.8A3.37,3.37,0,0,0,81.5,32l-.7-.6a1.15,1.15,0,0,1-.5-.9,1.52,1.52,0,0,1,.6-1c.8-.7,1.7-1.4,1.7-2.8A3.62,3.62,0,0,0,81.2,24h1.2ZM81.9,35.5c0,1.2-1,2.2-3,2.2-2.2,0-3.5-1-3.5-2.4a2.41,2.41,0,0,1,1.7-2.1,6.76,6.76,0,0,1,2.1-.3h.5C81.3,34,81.9,34.5,81.9,35.5Zm-1.6-6.4a2.25,2.25,0,0,1-1.4.6c-1.7,0-2.5-2.2-2.5-3.5a2.6,2.6,0,0,1,.4-1.5,1.91,1.91,0,0,1,1.4-.7c1.7,0,2.5,2.2,2.5,3.7A1.37,1.37,0,0,1,80.3,29.1Z"/><path class="cls-1" d="M69,23.1a4.9,4.9,0,0,0-5.2,4.8,4.73,4.73,0,0,0,4.9,4.7,4.87,4.87,0,0,0,5.1-4.8A4.65,4.65,0,0,0,69,23.1ZM71.2,31a2.81,2.81,0,0,1-2.1,1c-2.4,0-3.4-3.2-3.4-5.2a2.82,2.82,0,0,1,.9-2.4,3.11,3.11,0,0,1,1.8-.7c2.5,0,3.3,3.3,3.3,5.1A2.81,2.81,0,0,1,71.2,31Z"/><path class="cls-1" d="M58.3,23.1a4.9,4.9,0,0,0-5.2,4.8A4.73,4.73,0,0,0,58,32.6a4.87,4.87,0,0,0,5.1-4.8A4.65,4.65,0,0,0,58.3,23.1ZM60.5,31a2.81,2.81,0,0,1-2.1,1C56,32,55,28.8,55,26.8a2.82,2.82,0,0,1,.9-2.4,2.87,2.87,0,0,1,1.8-.7c2.5,0,3.3,3.3,3.3,5.1A2.81,2.81,0,0,1,60.5,31Z"/><path class="cls-1" d="M47,28.8l2.8-.2v3a6.18,6.18,0,0,1-2.4.5,6.65,6.65,0,0,1-6.7-6.8c0-3.3,2.2-5.5,5.2-5.5a5,5,0,0,1,4,1.8l-.5.7.7-.1,1.6-1.5a7.07,7.07,0,0,0-2.5-1.2,13.52,13.52,0,0,0-2.9-.4c-4.8,0-7.6,3.4-7.6,7,0,3,2,6.8,7.2,6.8,1,0,2-.2,3.1-.3l2.7-.6h0V28.8c0-.1.1-.2.2-.3l.5-.5h-4Z"/><path class="cls-1" d="M105.6,23a4.3,4.3,0,0,0-3.3,1.7V23.2h-1V36.1h1V31a4,4,0,0,0,3.3,1.7c2.5,0,4.2-1.9,4.2-4.9S108.2,23,105.6,23Zm-.1,8.9a4,4,0,0,1-3.1-2V25.8a3.93,3.93,0,0,1,3.1-1.9c2.1,0,3.3,1.7,3.3,4S107.6,31.9,105.5,31.9Z"/><rect class="cls-1" x="111.3" y="19.7" width="1" height="12.9"/><path class="cls-1" d="M127.3,31.4l-3.4-8.2h-1.1l4,9.4-.7,1.7c-.4.9-.8,1.1-1.4,1.1a2.35,2.35,0,0,1-.8-.2l-.2.9a3.4,3.4,0,0,0,1,.1,2.55,2.55,0,0,0,2.4-1.7L132,23.1h-1.2Z"/><path class="cls-1" d="M121.6,30.7V26.1a2.76,2.76,0,0,0-1-2.3,5,5,0,0,0-5.4,0,2.28,2.28,0,0,0-1,1.9v.1h1a1.46,1.46,0,0,1,.7-1.3,3.56,3.56,0,0,1,1.9-.5,2.71,2.71,0,0,1,1.9.6,1.86,1.86,0,0,1,.7,1.6v1.2H118a5.69,5.69,0,0,0-3.1.8,2.31,2.31,0,0,0-1.2,2,2.79,2.79,0,0,0,.8,2,3.17,3.17,0,0,0,2.3.7,5,5,0,0,0,2.1-.5,4.71,4.71,0,0,0,1.5-1.3v.7a3.09,3.09,0,0,0,.2.8h1.2a2.92,2.92,0,0,1-.2-.9A3.35,3.35,0,0,0,121.6,30.7Zm-1.1-.9a3.11,3.11,0,0,1-1.3,1.5,3.7,3.7,0,0,1-2.1.6,2.54,2.54,0,0,1-1.6-.5,1.61,1.61,0,0,1-.6-1.3,1.76,1.76,0,0,1,.9-1.5,3.92,3.92,0,0,1,2.3-.6h2.4v1.8Z"/><path class="cls-1" d="M41.7,9.8h1.9v1a2.29,2.29,0,0,1-1.5.6,2.18,2.18,0,0,1-2.2-2.3,2.18,2.18,0,0,1,2.2-2.3,2.49,2.49,0,0,1,1.7.8l.9-.5a3,3,0,0,0-2.6-1.3,3.15,3.15,0,0,0-3.3,3.3,3.2,3.2,0,0,0,3.3,3.3,3.39,3.39,0,0,0,2.6-1.2V8.8h-3Z"/><polygon class="cls-1" points="46.1 12.2 50.5 12.2 50.5 11.3 47.2 11.3 47.2 9.5 50.4 9.5 50.4 8.5 47.2 8.5 47.2 6.9 50.5 6.9 50.5 5.9 46.1 5.9 46.1 12.2"/><polygon class="cls-1" points="51.7 6.9 53.6 6.9 53.6 12.2 54.7 12.2 54.7 6.9 56.6 6.9 56.6 5.9 51.7 5.9 51.7 6.9"/><rect class="cls-1" x="60.5" y="5.9" width="1.1" height="6.3"/><polygon class="cls-1" points="62.8 6.9 64.7 6.9 64.7 12.2 65.8 12.2 65.8 6.9 67.8 6.9 67.8 5.9 62.8 5.9 62.8 6.9"/><path class="cls-1" d="M74.6,5.8a3.21,3.21,0,0,0-3.3,3.3,3.15,3.15,0,0,0,3.3,3.3,3.21,3.21,0,0,0,3.3-3.3A3.21,3.21,0,0,0,74.6,5.8Zm0,5.6a2.1,2.1,0,0,1-2.1-2.3,2.11,2.11,0,1,1,4.2,0A2.1,2.1,0,0,1,74.6,11.4Z"/><polygon class="cls-1" points="83.6 10.3 80.3 5.9 79.2 5.9 79.2 12.2 80.3 12.2 80.3 7.7 83.6 12.2 84.7 12.2 84.7 5.9 83.6 5.9 83.6 10.3"/><polygon class="cls-1" points="26.9 30.4 24.2 27.3 15.9 36.6 26.9 30.4"/><polygon class="cls-1" points="16.1 16.9 24.2 26.1 27 23.1 16.1 16.9"/><path class="cls-1" d="M32,25.9l-4.3-2.4-3,3.3L27.5,30l4.4-2.5C32.8,27.1,32.8,26.3,32,25.9Z"/><path class="cls-1" d="M14,17.4V35.9c0,.6.2.9.6,1l9.1-10.2L14.6,16.4A1,1,0,0,0,14,17.4Z"/></g></g></svg>